<?xml version="1.0" encoding="UTF-8" standalone="no"?>
<svg width="9px" height="17px" viewBox="0 0 9 17" version="1.1" xmlns="http://www.w3.org/2000/svg" xmlns:xlink="http://www.w3.org/1999/xlink" xmlns:sketch="http://www.bohemiancoding.com/sketch/ns">
    <!-- Generator: Sketch 3.3 (11970) - http://www.bohemiancoding.com/sketch -->
    <title>Shape + Oval</title>
    <desc>Created with Sketch.</desc>
    <defs></defs>
    <g id="Page-1" stroke="none" stroke-width="1" fill="none" fill-rule="evenodd" sketch:type="MSPage">
        <g id="info" sketch:type="MSLayerGroup" fill="#FFFFFF">
            <g id="Group" sketch:type="MSShapeGroup">
                <g id="Shape-+-Oval">
                    <path d="M6.839,14.525 C6.833,14.527 6.28,14.711 5.8,14.711 C5.535,14.711 5.428,14.656 5.394,14.632 C5.226,14.515 4.914,14.296 5.448,13.232 L6.448,11.238 C7.041,10.054 7.129,8.909 6.693,8.013 C6.337,7.28 5.654,6.777 4.773,6.597 C4.456,6.532 4.134,6.5 3.815,6.5 C1.966,6.5 0.721,7.58 0.669,7.626 C0.49,7.784 0.448,8.046 0.567,8.252 C0.687,8.458 0.934,8.552 1.162,8.474 C1.167,8.472 1.721,8.287 2.201,8.287 C2.464,8.287 2.57,8.342 2.603,8.365 C2.772,8.483 3.085,8.705 2.552,9.767 L1.552,11.762 C0.958,12.947 0.871,14.092 1.307,14.987 C1.663,15.72 2.345,16.223 3.228,16.403 C3.542,16.466 3.864,16.5 4.182,16.5 C6.032,16.5 7.278,15.42 7.33,15.374 C7.509,15.217 7.551,14.954 7.432,14.748 C7.312,14.543 7.063,14.451 6.839,14.525 L6.839,14.525 Z" id="Shape"></path>
                    <path d="M6,5.501 C7.38071187,5.501 8.5,4.38171187 8.5,3.001 C8.5,1.62028813 7.38071187,0.501 6,0.501 C4.61928813,0.501 3.5,1.62028813 3.5,3.001 C3.5,4.38171187 4.61928813,5.501 6,5.501 Z" id="Oval"></path>
                </g>
            </g>
        </g>
    </g>
</svg>