<?xml version="1.0" encoding="iso-8859-1"?>
<!-- Generator: Adobe Illustrator 16.0.0, SVG Export Plug-In . SVG Version: 6.00 Build 0)  -->
<!DOCTYPE svg PUBLIC "-//W3C//DTD SVG 1.1//EN" "http://www.w3.org/Graphics/SVG/1.1/DTD/svg11.dtd">
<svg version="1.1" id="Capa_1" xmlns="http://www.w3.org/2000/svg" xmlns:xlink="http://www.w3.org/1999/xlink" x="0px" y="0px"
	 width="24px" height="24px" viewBox="0 0 24 24" style="enable-background:new 0 0 24 24;" xml:space="preserve">
<g>
	<path d="M15,11c0,1.104-0.896,2-2,2c-1.104,0-2-0.896-2-2c0-1.104,0.896-2,2-2C14.104,9,15,9.896,15,11z M17.9,22
		C12.8,22,10.1,18,5.8,18C1.7,18,0,22,0,22s1.2-2,5.7-2c4.2,0,6.399,4,12,4c4.2,0,6.3-4,6.3-4S21.5,22,17.9,22z M16.3,20.4
		C12.6,19.2,9.5,16,5,16c0,0,0.4-2.2,2.8-4.1C8,11.8,9,7.8,9,7.8l0.021,0.002C9.082,7.5,9.277,7.243,9.553,7.105l3.245-1.623
		C12.438,5.276,12.092,4.976,11.8,4.6c-0.8-1.1-1.7-3-1.7-3L13.4,0c0,0,1,1.5,1.3,2.9c0.229,0.837,0.338,1.844,0.026,2.412
		l0.024,0.06c0.049,0.059,0.104,0.11,0.144,0.181c0.055,0.11,0.08,0.226,0.092,0.341l3.195,7.125
		c0.256,0.047,0.493,0.19,0.648,0.426c0.222,0.332,0.211,0.744,0.021,1.064l0.64,1.428c0.217,0.073,0.462,0.187,0.709,0.361
		c0.6,0.5,1.8,2.102,2.1,3.301c-0.5,0.801-2.2,1.399-3,1.399c-1.461-2.782-1.131-4.208-0.795-4.817l-0.454-1.015l-2.496,1.664
		C15.389,16.943,15.193,17,15,17c-0.152,0-0.307-0.035-0.447-0.105l-2.878-1.438C11.47,15.801,11.2,16.327,11.2,16.7
		C14.1,18.2,14.6,19.3,16.3,20.4z M17.221,13.316l-2.861-6.378l-3.475,1.737l-0.151,0.757L10.4,12.3l4.584,2.509L17.221,13.316z"/>
</g>
<g>
</g>
<g>
</g>
<g>
</g>
<g>
</g>
<g>
</g>
<g>
</g>
<g>
</g>
<g>
</g>
<g>
</g>
<g>
</g>
<g>
</g>
<g>
</g>
<g>
</g>
<g>
</g>
<g>
</g>
</svg>
