<?xml version="1.0" encoding="UTF-8" standalone="no"?>
<svg width="24px" height="24px" viewBox="0 0 24 24" version="1.1" xmlns="http://www.w3.org/2000/svg" xmlns:xlink="http://www.w3.org/1999/xlink" xmlns:sketch="http://www.bohemiancoding.com/sketch/ns">
    <!-- Generator: Sketch 3.3 (11970) - http://www.bohemiancoding.com/sketch -->
    <title>Shape</title>
    <desc>Created with Sketch.</desc>
    <defs></defs>
    <g id="Page-1" stroke="none" stroke-width="1" fill="none" fill-rule="evenodd" sketch:type="MSPage">
        <g id="kayak" sketch:type="MSLayerGroup" fill="#3585F1">
            <path d="M15,11 C15,12.104 14.104,13 13,13 C11.896,13 11,12.104 11,11 C11,9.896 11.896,9 13,9 C14.104,9 15,9.896 15,11 L15,11 Z M17.9,22 C12.8,22 10.1,18 5.8,18 C1.7,18 0,22 0,22 C0,22 1.2,20 5.7,20 C9.9,20 12.099,24 17.7,24 C21.9,24 24,20 24,20 C24,20 21.5,22 17.9,22 L17.9,22 Z M16.3,20.4 C12.6,19.2 9.5,16 5,16 C5,16 5.4,13.8 7.8,11.9 C8,11.8 9,7.8 9,7.8 L9.021,7.802 C9.082,7.5 9.277,7.243 9.553,7.105 L12.798,5.482 C12.438,5.276 12.092,4.976 11.8,4.6 C11,3.5 10.1,1.6 10.1,1.6 L13.4,0 C13.4,0 14.4,1.5 14.7,2.9 C14.929,3.737 15.038,4.744 14.726,5.312 L14.75,5.372 C14.799,5.431 14.854,5.482 14.894,5.553 C14.949,5.663 14.974,5.779 14.986,5.894 L18.181,13.019 C18.437,13.066 18.674,13.209 18.829,13.445 C19.051,13.777 19.04,14.189 18.85,14.509 L19.49,15.937 C19.707,16.01 19.952,16.124 20.199,16.298 C20.799,16.798 21.999,18.4 22.299,19.599 C21.799,20.4 20.099,20.998 19.299,20.998 C17.838,18.216 18.168,16.79 18.504,16.181 L18.05,15.166 L15.554,16.83 C15.389,16.943 15.193,17 15,17 C14.848,17 14.693,16.965 14.553,16.895 L11.675,15.457 C11.47,15.801 11.2,16.327 11.2,16.7 C14.1,18.2 14.6,19.3 16.3,20.4 L16.3,20.4 Z M17.221,13.316 L14.36,6.938 L10.885,8.675 L10.734,9.432 L10.4,12.3 L14.984,14.809 L17.221,13.316 L17.221,13.316 Z" id="Shape" sketch:type="MSShapeGroup"></path>
        </g>
    </g>
</svg>