<?xml version="1.0" encoding="UTF-8" standalone="no"?>
<svg width="384px" height="384px" viewBox="0 0 384 384" version="1.1" xmlns="http://www.w3.org/2000/svg" xmlns:xlink="http://www.w3.org/1999/xlink" xmlns:sketch="http://www.bohemiancoding.com/sketch/ns">
    <!-- Generator: Sketch 3.3 (11970) - http://www.bohemiancoding.com/sketch -->
    <title>Shape</title>
    <desc>Created with Sketch.</desc>
    <defs></defs>
    <g id="Page-1" stroke="none" stroke-width="1" fill="none" fill-rule="evenodd" sketch:type="MSPage">
        <g id="plus" sketch:type="MSLayerGroup" transform="translate(0.000000, -1.000000)" fill="#3585F1">
            <path d="M353.4,161 L224,161 L224,31.6 C224,14.7 209.7,1 192,1 C174.3,1 160,14.7 160,31.6 L160,161 L30.6,161 C13.7,161 0,175.3 0,193 C0,210.7 13.7,225 30.6,225 L160,225 L160,354.4 C160,371.3 174.3,385 192,385 C209.7,385 224,371.3 224,354.4 L224,225 L353.4,225 C370.3,225 384,210.7 384,193 C384,175.3 370.3,161 353.4,161 L353.4,161 Z" id="Shape" sketch:type="MSShapeGroup"></path>
        </g>
    </g>
</svg>