<?xml version="1.0" encoding="iso-8859-1"?>
<!-- Generator: Adobe Illustrator 16.0.0, SVG Export Plug-In . SVG Version: 6.00 Build 0)  -->
<!DOCTYPE svg PUBLIC "-//W3C//DTD SVG 1.1//EN" "http://www.w3.org/Graphics/SVG/1.1/DTD/svg11.dtd">
<svg version="1.1" id="Capa_1" xmlns="http://www.w3.org/2000/svg" xmlns:xlink="http://www.w3.org/1999/xlink" x="0px" y="0px"
	 width="24px" height="24px" viewBox="0 0 24 24" style="enable-background:new 0 0 24 24;" xml:space="preserve">
<g>
	<path d="M15.9,9c0-1.657,1.344-3,3-3s3,1.343,3,3s-1.344,3-3,3S15.9,10.657,15.9,9z M17.4,15c-3,0-5.602,2-10.5,2c-5,0-6.9-2-6.9-2
		s2.2,4,7.601,4c4.799,0,7.7-2,11-2c4,0,5.398,2,5.398,2S21.9,15,17.4,15z M4.347,9.895L9.52,7.309l0.195,0.327L10.8,10.6
		c-0.1,0-5.8,3.4-7,4.1c0.801,0.2,1.801,0.3,3,0.3c3.9,0,6.4-1.3,8.802-1.8L10.8,5.5l-0.023,0.016l-0.02-0.031
		c-0.269-0.448-0.838-0.613-1.305-0.38l-6,3C2.958,8.352,2.758,8.953,3.005,9.447C3.252,9.939,3.853,10.143,4.347,9.895z"/>
</g>
<g>
</g>
<g>
</g>
<g>
</g>
<g>
</g>
<g>
</g>
<g>
</g>
<g>
</g>
<g>
</g>
<g>
</g>
<g>
</g>
<g>
</g>
<g>
</g>
<g>
</g>
<g>
</g>
<g>
</g>
</svg>
