<?xml version="1.0" encoding="UTF-8" standalone="no"?>
<svg width="25px" height="15px" viewBox="0 0 25 15" version="1.1" xmlns="http://www.w3.org/2000/svg" xmlns:xlink="http://www.w3.org/1999/xlink" xmlns:sketch="http://www.bohemiancoding.com/sketch/ns">
    <!-- Generator: Sketch 3.3 (11970) - http://www.bohemiancoding.com/sketch -->
    <title>Slice 1</title>
    <desc>Created with Sketch.</desc>
    <defs></defs>
    <g id="Page-1" stroke="none" stroke-width="1" fill="none" fill-rule="evenodd" sketch:type="MSPage">
        <g id="swim-white" sketch:type="MSLayerGroup" fill="#FFFFFF">
            <path d="M16.9,5 C16.9,3.343 18.244,2 19.9,2 C21.556,2 22.9,3.343 22.9,5 C22.9,6.657 21.556,8 19.9,8 C18.244,8 16.9,6.657 16.9,5 L16.9,5 Z M18.4,11 C15.4,11 12.798,13 7.9,13 C2.9,13 1,11 1,11 C1,11 3.2,15 8.601,15 C13.4,15 16.301,13 19.601,13 C23.601,13 24.999,15 24.999,15 C24.999,15 22.9,11 18.4,11 L18.4,11 Z M5.347,5.895 L10.52,3.309 L10.715,3.636 L11.8,6.6 C11.7,6.6 6,10 4.8,10.7 C5.601,10.9 6.601,11 7.8,11 C11.7,11 14.2,9.7 16.602,9.2 L11.8,1.5 L11.777,1.516 L11.757,1.485 C11.488,1.037 10.919,0.872 10.452,1.105 L4.452,4.105 C3.958,4.352 3.758,4.953 4.005,5.447 C4.252,5.939 4.853,6.143 5.347,5.895 L5.347,5.895 Z" id="Shape" sketch:type="MSShapeGroup"></path>
        </g>
    </g>
</svg>